<?xml version="1.0" encoding="UTF-8"?> <svg xmlns="http://www.w3.org/2000/svg" width="278" height="46" viewBox="0 0 278 46"><path fill="#085B83" fill-rule="evenodd" d="M87.087 23.244l.347.006c1.367.047 2.521.376 3.46.988l.231.16c.91.66 1.653 1.612 2.226 2.856l7.839 17.194.08.168c.05.11.093.213.129.313l.051.154c.033.104.064.214.093.327H94.99l-.043-.144a6.082 6.082 0 0 0-.086-.257l-.064-.172-.064-.164-1.156-2.63h-12.85l-1.124 2.597-.065.193-.064.193-.056.192-.04.192h-6.713l.043-.167c.031-.109.065-.214.1-.314l.059-.153c.043-.104.093-.214.15-.328l7.775-17.194.146-.305c.6-1.195 1.365-2.099 2.295-2.71 1.006-.664 2.29-.995 3.854-.995zm140 2.71l.4.006c1.187.035 2.233.228 3.14.576l.33.136a8.01 8.01 0 0 1 2.294 1.486l.27.259a8.417 8.417 0 0 1 1.697 2.464l.137.32c.39.964.586 1.994.586 3.088l-.009.365a8.665 8.665 0 0 1-.195 1.472l-.088.367a8.83 8.83 0 0 1-.508 1.418l-.166.34c-.232.448-.51.871-.836 1.27l-.208.243a6.786 6.786 0 0 1-1.212 1.061l3.095 3.42.097.104c.062.072.119.147.169.225l.072.116c.045.075.084.146.118.214h-6.19l-.02-.038a1.914 1.914 0 0 0-.068-.102l-.03-.04a8.157 8.157 0 0 0-.224-.276l-.07-.083-.5-.588-.115-.133c-.24-.28-.549-.636-.926-1.07l-.254.022-.253.015-.26.01-.273.003h-4.084l-.402-.006c-1.321-.04-2.485-.278-3.493-.716l-.327-.15a7.916 7.916 0 0 1-2.475-1.839l-.247-.283a8.366 8.366 0 0 1-1.339-2.25l-.12-.319a8.313 8.313 0 0 1-.451-2.772l.007-.362a8.037 8.037 0 0 1 .716-3.046l.167-.346a8.305 8.305 0 0 1 1.799-2.377l.253-.225a8.17 8.17 0 0 1 2.373-1.397l.307-.11c.936-.314 2.013-.472 3.232-.472h4.084zm-60.352-.38l.298.006c.683.028 1.269.153 1.758.374l.208.104c.487.263.966.667 1.44 1.214l8.372 10.006.067.075c.045.043.09.073.136.09l.07.021c.049.011.101.017.158.017l.083-.007c.182-.034.273-.184.273-.45v-11.07h4.49v13.808l-.006.27c-.022.527-.108.99-.26 1.389l-.095.225a3.074 3.074 0 0 1-.617.914l-.151.142a2.81 2.81 0 0 1-.876.517l-.235.078a3.512 3.512 0 0 1-.983.138l-.306-.007a5.097 5.097 0 0 1-1.609-.31l-.231-.099a3.594 3.594 0 0 1-1.203-.927l-9.411-10.868-.081-.082a.49.49 0 0 0-.325-.146l-.085.007a.417.417 0 0 0-.22.12l-.045.054a.515.515 0 0 0-.081.3V43.08h-4.516V29.577l.006-.304c.024-.596.12-1.111.286-1.545l.088-.212c.186-.411.432-.755.736-1.03l.183-.153a3.262 3.262 0 0 1 1.086-.544 5.69 5.69 0 0 1 1.598-.215zm75.573.38v11.147l.005.172c.057.95.605 1.424 1.644 1.424h7.129l.174-.004c1.016-.053 1.525-.584 1.525-1.592V25.954h4.617v11.654l-.004.331c-.052 1.74-.516 3.018-1.391 3.836l-.16.141c-.944.776-2.429 1.164-4.457 1.164h-7.687l-.398-.005c-.912-.023-1.701-.127-2.367-.312l-.28-.085c-.635-.21-1.163-.511-1.585-.903l-.174-.173a3.954 3.954 0 0 1-.878-1.524l-.078-.263c-.168-.63-.252-1.365-.252-2.207V25.954h4.617zm-30.34 0V43.08h-4.618V25.954h4.617zm-6.444 0v4.535h-7.51V43.08h-4.617V30.49h-7.535v-4.533l.001-.003h19.661zm-195.148 0l.41.006c1.218.036 2.295.233 3.23.59l.342.138a8.127 8.127 0 0 1 2.36 1.52l.281.27a8.648 8.648 0 0 1 1.749 2.543l.14.327c.397.988.595 2.044.595 3.169l-.007.374a8.398 8.398 0 0 1-.576 2.793l-.153.362a8.423 8.423 0 0 1-1.47 2.247l-.272.28a8.644 8.644 0 0 1-2.62 1.76l-.315.129c-1.064.412-2.295.618-3.694.618h-9.26l-.143-.005C.324 43.03 0 42.668 0 41.991V27.018l.005-.137c.046-.618.417-.927 1.112-.927h9.259zm29.326 0v4.535h-13.04l-.085.005c-.214.029-.32.171-.32.426v1.95h13.369v3.294h-13.37v2.077l.006.096c.026.24.16.36.4.36h13.04v4.383H24.075l-.197-.004c-1.476-.063-2.213-.856-2.213-2.377v-12.44l.004-.187c.065-1.411.876-2.118 2.43-2.118h15.603zm16.895 0v11.122l.004.2c.02.517.125.876.314 1.079l.077.072c.225.18.6.27 1.128.27h11.898v4.383H57.56l-.343-.004c-.9-.023-1.669-.135-2.308-.339l-.263-.09c-.597-.226-1.084-.542-1.462-.948l-.156-.18c-.35-.432-.607-.954-.77-1.568l-.074-.307a10.11 10.11 0 0 1-.205-2.137V25.955h4.617zm60.39 0v4.535h-7.508V43.08h-4.617V30.49h-7.535v-4.535h19.66zm6.318 0v11.122l.004.2c.02.517.125.876.312 1.079l.078.072c.226.18.601.27 1.128.27h11.897v4.383h-12.456l-.343-.004c-.9-.023-1.67-.135-2.308-.339l-.263-.09c-.597-.226-1.085-.542-1.462-.948l-.156-.18c-.35-.432-.607-.954-.77-1.568l-.074-.307a10.091 10.091 0 0 1-.205-2.137V25.954h4.618zm26.281-.38l.296.006c1.07.04 1.974.3 2.71.78l.216.15c.704.52 1.279 1.264 1.725 2.231l6.19 13.579.063.132c.04.087.073.17.102.248l.06.184.053.196h-5.174l-.034-.114a4.608 4.608 0 0 0-.067-.203l-.052-.136-.05-.13-.914-2.077h-10.147l-.888 2.052-.05.152-.051.152-.045.152-.031.152h-5.302l.053-.196.06-.184.047-.121c.034-.083.073-.169.119-.26l6.138-13.578.138-.283c.471-.923 1.068-1.622 1.791-2.098.795-.524 1.809-.786 3.044-.786zm128.263.38v4.535h-13.04l-.085.005c-.214.029-.321.171-.321.426v1.95h13.37v3.294h-13.37v2.077l.005.096c.027.24.16.36.401.36h13.04v4.383h-15.627l-.196-.004c-1.477-.063-2.215-.856-2.215-2.377v-12.44l.005-.187c.064-1.411.875-2.118 2.431-2.118h15.602zM10.376 30.49H4.922l-.077.006c-.169.025-.253.142-.253.349v7.372c0 .237.11.355.33.355h5.454l.298-.006c.683-.026 1.268-.142 1.757-.35l.233-.106c.456-.223.843-.509 1.163-.856l.162-.182c.26-.31.468-.66.623-1.047l.086-.234c.129-.395.194-.811.194-1.247l-.007-.244a3.866 3.866 0 0 0-.336-1.378l-.12-.248a4.137 4.137 0 0 0-.806-1.07l-.192-.163a4.438 4.438 0 0 0-1.127-.647l-.197-.071c-.473-.155-1.05-.233-1.731-.233zm216.812 0h-4.313l-.273.004c-.622.02-1.144.112-1.565.275l-.236.1a3.412 3.412 0 0 0-.995.685l-.161.15a3.423 3.423 0 0 0-.74 1.091l-.097.247c-.147.416-.22.848-.22 1.299l.008.243c.025.403.11.79.258 1.162l.095.22c.169.358.386.677.654.96l.158.16c.326.314.718.568 1.174.763.533.229 1.18.342 1.94.342h4.313l.28-.006c.641-.024 1.195-.136 1.66-.336l.224-.102a3.705 3.705 0 0 0 1.109-.822l.154-.173a3.69 3.69 0 0 0 .595-1.006l.081-.225c.123-.378.185-.772.185-1.18l-.01-.268a3.852 3.852 0 0 0-.307-1.278l-.097-.205a3.385 3.385 0 0 0-.804-1.036l-.175-.162a3.574 3.574 0 0 0-1.055-.623l-.187-.065c-.451-.143-1.002-.214-1.653-.214zM87.12 28.825l-.142.01c-.14.017-.275.062-.403.135l-.1.067a1.145 1.145 0 0 0-.318.462l-3.309 7.763h8.609l-3.34-7.763-.069-.133a1.048 1.048 0 0 0-.35-.38l-.105-.058a1.087 1.087 0 0 0-.473-.103zm62.492 1.157l-.112.007a.873.873 0 0 0-.32.107l-.077.054a.91.91 0 0 0-.252.365l-2.613 6.13h6.8l-2.639-6.13-.054-.106a.836.836 0 0 0-.276-.3l-.105-.055a.864.864 0 0 0-.352-.072zm-76.016-4.028l-2.106 8.589h-3.602l1.09-8.589h4.618zM23.54 0v5.87H11.917l-.33.005c-.86.026-1.582.156-2.165.389l-.277.117a5.505 5.505 0 0 0-1.431.931l-.21.212a5.413 5.413 0 0 0-.988 1.494l-.104.248a5.07 5.07 0 0 0-.34 1.85l.007.289c.03.57.147 1.115.354 1.63l.11.253c.23.498.532.943.908 1.337l.186.192c.448.435.988.786 1.62 1.054l.247.096c.674.243 1.479.363 2.413.363H23.54v5.837H11.917l-.455-.006c-1.802-.046-3.38-.366-4.734-.961l-.394-.182a11.005 11.005 0 0 1-3.349-2.458l-.292-.333a11.008 11.008 0 0 1-1.81-3.044L.74 14.8a11.116 11.116 0 0 1-.611-3.716l.006-.402c.049-1.467.363-2.84.946-4.123l.179-.377a11.128 11.128 0 0 1 2.447-3.264l.301-.269c.92-.79 1.985-1.416 3.197-1.878l.341-.123C8.814.216 10.271 0 11.916 0h11.625zM76.03 2.141l.298.006c.683.028 1.268.152 1.756.374l.21.104c.486.262.965.667 1.44 1.213l8.371 10.007.067.075c.046.043.09.073.136.09l.07.02a.711.711 0 0 0 .158.017l.084-.007c.18-.033.271-.182.271-.449V2.521h4.49v13.807l-.005.27a4.381 4.381 0 0 1-.26 1.389l-.094.225c-.165.364-.37.67-.617.915l-.152.141a2.8 2.8 0 0 1-.876.518l-.235.077a3.519 3.519 0 0 1-.982.138l-.307-.007a5.084 5.084 0 0 1-1.609-.31l-.23-.098a3.58 3.58 0 0 1-1.203-.928L77.4 7.79l-.082-.082a.49.49 0 0 0-.324-.146l-.086.008a.414.414 0 0 0-.219.12l-.046.054a.514.514 0 0 0-.08.3v11.602h-4.516V6.144l.006-.305c.024-.595.119-1.11.285-1.545l.088-.211c.187-.412.433-.755.737-1.03l.183-.153a3.255 3.255 0 0 1 1.085-.544 5.675 5.675 0 0 1 1.599-.215zm-45.182.38v6.207h10.224V2.52h4.617v17.125h-4.617v-6.611H30.848v6.611h-4.617V2.521h4.617zm28.033-.38l.296.006c1.07.04 1.973.3 2.71.78l.215.149c.704.52 1.28 1.264 1.725 2.231l6.19 13.58.064.132a3 3 0 0 1 .101.247l.06.184.054.196h-5.175l-.034-.114a4.502 4.502 0 0 0-.068-.202l-.05-.136-.05-.13-.914-2.078H53.857l-.887 2.052-.051.152-.05.153-.045.151-.032.152H47.49l.054-.196.06-.184.046-.12c.034-.083.074-.17.12-.26l6.138-13.579.138-.283c.47-.923 1.067-1.622 1.79-2.098.795-.523 1.81-.785 3.045-.785zm55.935.38h.002v4.534h-7.51v12.591h-4.616V7.056h-7.535V2.52h19.659zm6.445 0v17.125h-4.616V2.521h4.616zm20.572 0h.003v4.534h-13.04l-.085.006c-.214.028-.32.17-.32.425v1.95h13.368v3.294H128.39v2.078l.005.095c.027.24.16.36.401.36h13.04v4.383h-15.628l-.196-.004c-1.476-.063-2.214-.856-2.214-2.377V4.826l.005-.188c.064-1.411.875-2.117 2.431-2.117h15.6zm15.477 0l.349.005c.91.03 1.673.176 2.29.438l.29.133a5.17 5.17 0 0 1 1.46 1.046l.204.225c.327.386.593.821.798 1.307l.097.251c.18.507.27 1.036.27 1.586l-.007.294a5.367 5.367 0 0 1-.347 1.67l-.086.201c-.247.531-.64.99-1.183 1.381l.209.131c.469.317.817.704 1.047 1.161l.075.164c.212.513.318 1.21.318 2.091v3.635c.002.276.006.508.013.697l.012.237c.012.157.029.315.05.472h-4.641l-.042-.374a8.585 8.585 0 0 1-.034-.766v-3.42l-.005-.174c-.029-.45-.17-.78-.426-.99l-.104-.075c-.294-.187-.741-.28-1.343-.28h-7.99v6.08h-4.592V3.584l.005-.137c.047-.618.426-.927 1.136-.927h12.177zm25.977 0v4.534h-12.328l-.166.004c-.21.01-.378.038-.506.086l-.116.048a.987.987 0 0 0-.278.192l-.094.105a1.211 1.211 0 0 0-.262.782l.007.136c.032.31.173.57.425.776l.109.077c.077.047.163.085.26.113l.093.023c.135.027.311.04.528.04h7.533l.316.005c.828.028 1.539.165 2.133.413l.28.125a4.863 4.863 0 0 1 1.407 1.002l.19.207c.367.422.663.893.888 1.414l.104.263c.193.53.29 1.084.29 1.663l-.007.266a4.82 4.82 0 0 1-.336 1.533l-.12.282a5.449 5.449 0 0 1-.806 1.263l-.183.198c-.44.449-.966.813-1.58 1.094l-.24.101c-.655.253-1.433.38-2.336.38H165.2v-4.383h12.48l.172-.003a2.07 2.07 0 0 0 .654-.11l.138-.063c.131-.068.242-.153.33-.254l.086-.113c.129-.195.194-.419.194-.673l-.007-.155a1.199 1.199 0 0 0-.348-.757l-.095-.094a1.019 1.019 0 0 0-.35-.197l-.116-.032a3.096 3.096 0 0 0-.657-.056h-6.976l-.339-.004c-.995-.026-1.808-.164-2.44-.414l-.257-.11a4.74 4.74 0 0 1-1.48-1.018l-.189-.206a5.227 5.227 0 0 1-.877-1.403l-.1-.26a5.074 5.074 0 0 1-.28-1.702l.008-.295c.032-.583.16-1.135.385-1.656l.118-.257c.25-.505.569-.96.961-1.365l.177-.173a5.02 5.02 0 0 1 1.547-.954l.215-.08c.665-.225 1.515-.338 2.55-.338h12.583zM58.906 6.549l-.113.007a.87.87 0 0 0-.318.107l-.079.053a.906.906 0 0 0-.251.365l-2.613 6.13h6.798l-2.638-6.13-.054-.105a.835.835 0 0 0-.275-.3l-.105-.056a.863.863 0 0 0-.352-.071zm97.796.253h-7.738l-.09.006c-.194.028-.29.153-.29.374v2.483h8.118l.185-.006c.238-.017.439-.065.6-.146l.147-.082c.14-.089.26-.197.361-.323l.1-.137a1.34 1.34 0 0 0 .23-.75l-.008-.162a1.273 1.273 0 0 0-.373-.801l-.095-.096c-.27-.24-.651-.36-1.147-.36z"></path></svg> 